/* XPM */
static char *wescoin16[] = {
/* columns rows colors chars-per-pixel */
"16 16 207 2 ",
"   c #DBAE3A",
".  c #DBB836",
"X  c #DFB835",
"o  c #DFB935",
"O  c #DFB837",
"+  c #DCB13B",
"@  c #DBB03C",
"#  c #DEB03C",
"$  c #DEB73E",
"%  c #E0BA37",
"&  c #E3BD35",
"*  c #E2BF34",
"=  c #E3BE37",
"-  c #E1B63A",
";  c #E1B73C",
":  c #E2BA38",
">  c #E2BB39",
",  c #E1BC39",
"<  c #E3BE38",
"1  c #E3BF38",
"2  c #E1BD3B",
"3  c #E0BF3A",
"4  c #E0BF3B",
"5  c #E2BE3A",
"6  c #E3BF3B",
"7  c #E1B93C",
"8  c #DFC43D",
"9  c #E9CC37",
"0  c #E7C838",
"q  c #E8C939",
"w  c #E9CD3A",
"e  c #A3864B",
"r  c #B88E4A",
"t  c #A78A5B",
"y  c #A88E5B",
"u  c #AF9158",
"i  c #AD9559",
"p  c #B39155",
"a  c #B6945D",
"s  c #B09B5F",
"d  c #B19B68",
"f  c #B79E6A",
"g  c #B79F6B",
"h  c #B49F73",
"j  c #BFA46A",
"k  c #BBA76E",
"l  c #B6A373",
"z  c #BCA770",
"x  c #BEA771",
"c  c #BFAC76",
"v  c #C49D53",
"b  c #D9AD4C",
"n  c #DAAE4D",
"m  c #DBB644",
"M  c #CAA552",
"N  c #C5AF5C",
"B  c #C7B15D",
"V  c #D3BB50",
"C  c #D1BA52",
"Z  c #DEBF50",
"A  c #D2B35A",
"S  c #D7B15D",
"D  c #C3A565",
"F  c #C1A566",
"G  c #C1A567",
"H  c #C3AA66",
"J  c #C6AF6B",
"K  c #CDAD6E",
"L  c #C9B167",
"P  c #CDB066",
"I  c #DAB569",
"U  c #D8BA6B",
"Y  c #C2AA71",
"T  c #C2AC72",
"R  c #CBAF77",
"E  c #C5AA79",
"W  c #C1AD7A",
"Q  c #C5B274",
"!  c #CDBB77",
"~  c #CDBC74",
"^  c #CDBE76",
"/  c #DDB770",
"(  c #D0B77F",
")  c #D3B87B",
"_  c #E0BA6E",
"`  c #D6C155",
"'  c #DAC353",
"]  c #DBC650",
"[  c #DEC857",
"{  c #E1C245",
"}  c #E7CA46",
"|  c #E7CE47",
" . c #E1C54A",
".. c #E5C64B",
"X. c #E6CA4B",
"o. c #E7CC4D",
"O. c #E5CC4F",
"+. c #E9CE4A",
"@. c #E8CE4B",
"#. c #ECD34E",
"$. c #E0C157",
"%. c #E8CD57",
"&. c #DEC968",
"*. c #D6C677",
"=. c #D2C47A",
"-. c #D3C07D",
";. c #E0CB64",
":. c #E5CE68",
">. c #E8D160",
",. c #E8C276",
"<. c #E2CE7B",
"1. c #E5D072",
"2. c #E6D475",
"3. c #E7D575",
"4. c #B5A781",
"5. c #C3AE85",
"6. c #C0B381",
"7. c #C2B480",
"8. c #C6BB86",
"9. c #CFBD83",
"0. c #C4BA8A",
"q. c #C4BB8E",
"w. c #D3BF99",
"e. c #DFCF83",
"r. c #D5C08F",
"t. c #DBC58C",
"y. c #DFCF8C",
"u. c #CEC097",
"i. c #D7C791",
"p. c #D7C992",
"a. c #D8C892",
"s. c #DECF94",
"d. c #D6C598",
"f. c #D9C399",
"g. c #D8C49B",
"h. c #D7CA9A",
"j. c #DED196",
"k. c #EAD786",
"l. c #E0D188",
"z. c #E2C890",
"x. c #E9D797",
"c. c #EBD892",
"v. c #EADC9A",
"b. c #D0C7A7",
"n. c #D4CFA1",
"m. c #DACEA6",
"M. c #D7CBAA",
"N. c #DDD3A3",
"B. c #DED1A8",
"V. c #DBD6AA",
"C. c #DFDDAF",
"Z. c #E0CFAD",
"A. c #E4D8A2",
"S. c #E2D0AA",
"D. c #E7DFAB",
"F. c #E7DDAE",
"G. c #E0D3B1",
"H. c #E3D7B3",
"J. c #E9D9B4",
"K. c #E1D6B9",
"L. c #E3DDBB",
"P. c #EDDDB8",
"I. c #E9E1A5",
"U. c #E3D9C3",
"Y. c #E6DFCB",
"T. c #E5E0C0",
"R. c #E9E0CA",
"E. c #EAE2CC",
"W. c #EAE2CF",
"Q. c #EFE7D3",
"!. c #E8E5D5",
"~. c #EBE4D4",
"^. c #E9E4D7",
"/. c #EAE4D6",
"(. c #ECE6D6",
"). c #EBE8D7",
"_. c #EBE7D9",
"`. c #EBE7DC",
"'. c #EEEBDE",
"]. c #EEEBE0",
"[. c #EFECE2",
"{. c #EDEBE4",
"}. c #EFEDE4",
"|. c #F0EFE4",
" X c #F0EFE5",
".X c #F1EFE6",
"XX c #F0EEE8",
"oX c #F0EFE9",
"OX c #F0F0EA",
"+X c #F1F0EB",
"@X c #F0F0EC",
"#X c #F1F1ED",
"$X c #F2F1ED",
"%X c #F0F0EE",
"&X c #F1F1EE",
"*X c #F0F1EF",
"=X c #F2F1EE",
"-X c #F2F1EF",
";X c #F2F2EF",
":X c #F0F1F0",
">X c #F1F1F0",
",X c #F1F2F0",
"<X c #F1F2F1",
"1X c #F2F2F0",
"2X c #F2F3F4",
"3X c #F2F4F4",
"4X c None",
/* pixels */
"4X4X4X4X4X<XoX X|.OX3X4X4X4X4X4X",
"4X4X4X<XW.B.D.C.s.R w.~.<X4X4X4X",
"4X4X@XG.G H h.L.b.h p / P.+X4X4X",
"4X>XJ.I z 6.y.k.<.^ 7.( _ S.*X4X",
"4XQ.,.) =.O.2 X o , o.*.x F E.4X",
"2Xf.v ! @.% * 3 4 . O } ~ -.F.%X",
"{.a e ` 6 0 #.c.x.:.q 5 >.j.I.].",
"/.y i  .= w | e.l.[ 9 < X.Q T (.",
"'.q.9...& +.&.] ;.' 8 1 { s t ^.",
".XV.p.$.: %.A.3.2.v.1.> Z Y E [.",
"-Xm.k J ; m N C V B A - L j g.$X",
"4XY.g W P   + $ 7 @ # U c D R.4X",
"4X,XK.K f d M b n S t.N.8.M.=X4X",
"4X4X;XZ.r u 4.u.d.r.a.n.T.XX4X4X",
"4X4X4X:XU.5.l 0.i.z.H.).&X4X4X4X",
"4X4X4X4X4X#X`.!._.}.1X4X4X4X4X4X"
};
