/* XPM */
static char *wescoin64[] = {
/* columns rows colors chars-per-pixel */
"64 64 242 2 ",
"   c #6D5A4F",
".  c #7B6958",
"X  c #77634F",
"o  c #787673",
"O  c #5F5860",
"+  c #996A28",
"@  c #966D34",
"#  c #AC7B33",
"$  c #A37535",
"%  c #AB7A30",
"&  c #866B49",
"*  c #987747",
"=  c #8B755B",
"-  c #8B7453",
";  c #A47D46",
":  c #887964",
">  c #897C6E",
",  c #AD8138",
"<  c #B38136",
"1  c #B6883A",
"2  c #B9903C",
"3  c #DCB419",
"4  c #CFAE1D",
"5  c #C48F2C",
"6  c #C6922D",
"7  c #CA962E",
"8  c #CB9C33",
"9  c #D19E30",
"0  c #CAAC26",
"q  c #DCA52D",
"w  c #DDA92E",
"e  c #D3AA2A",
"r  c #DBB529",
"t  c #C7A639",
"y  c #D4A434",
"u  c #DDAC32",
"i  c #D7A938",
"p  c #DCB43B",
"a  c #D7B838",
"s  c #CEB230",
"d  c #E2BB2D",
"f  c #E0AE31",
"g  c #E2B434",
"h  c #E3BA35",
"j  c #E5BD3A",
"k  c #E1B33B",
"l  c #E0AD2F",
"z  c #DDC239",
"x  c #E6C435",
"c  c #E8C937",
"v  c #E6C33B",
"b  c #E8C63D",
"n  c #EACD3A",
"m  c #E6C939",
"M  c #EBD03C",
"N  c #E3C12A",
"B  c #99835C",
"V  c #9F905E",
"C  c #B68D46",
"Z  c #BB9848",
"A  c #A58A5A",
"S  c #AB935A",
"D  c #B89957",
"F  c #AA874D",
"G  c #BDA54B",
"H  c #BDA45B",
"J  c #988867",
"K  c #958974",
"L  c #9A927A",
"P  c #8E8674",
"I  c #A99768",
"U  c #B69B66",
"Y  c #A99777",
"T  c #B49D75",
"R  c #A48D6A",
"E  c #B7A46D",
"W  c #B8A677",
"Q  c #BEB077",
"!  c #C79A49",
"~  c #C49E56",
"^  c #C4AC43",
"/  c #C8A849",
"(  c #D5AD48",
")  c #CAB349",
"_  c #D8B648",
"`  c #C4A154",
"'  c #C6A45B",
"]  c #CCAC5B",
"[  c #C8A957",
"{  c #D4AC54",
"}  c #D7AB58",
"|  c #CCB45B",
" . c #D3B452",
".. c #D3B35C",
"X. c #DAB35C",
"o. c #D5BB5B",
"O. c #DBBC5B",
"+. c #D9B853",
"@. c #E3BB46",
"#. c #E2BD53",
"$. c #E1BA5A",
"%. c #C6AB66",
"&. c #CCB264",
"*. c #CAB46A",
"=. c #D3B562",
"-. c #D5BB66",
";. c #D8B869",
":. c #C5A976",
">. c #CBB676",
",. c #D4BB73",
"<. c #D6B977",
"1. c #D6AD61",
"2. c #E4BB6A",
"3. c #E9BE6D",
"4. c #E5BA64",
"5. c #E4BD77",
"6. c #DDC549",
"7. c #D9C358",
"8. c #E4C343",
"9. c #EACC43",
"0. c #E5C747",
"q. c #EDD245",
"w. c #EDD549",
"e. c #EFD84D",
"r. c #F0D94A",
"t. c #F0D749",
"y. c #E3C656",
"u. c #EDD856",
"i. c #F0DC54",
"p. c #F1DD5E",
"a. c #EFE05A",
"s. c #DBC468",
"d. c #DBC474",
"f. c #DBC47C",
"g. c #DAC779",
"h. c #E7C56A",
"j. c #EAD468",
"k. c #E7C776",
"l. c #F3C976",
"z. c #E7D47A",
"x. c #F9D07E",
"c. c #F1DC61",
"v. c #F2E06A",
"b. c #F2E278",
"n. c #7F8893",
"m. c #8B8B8B",
"M. c #868686",
"N. c #9A9686",
"B. c #979796",
"V. c #928D85",
"C. c #A89C81",
"Z. c #A19E9A",
"A. c #ABA286",
"S. c #B7A986",
"D. c #BFB387",
"F. c #AAA599",
"G. c #B6AE99",
"H. c #B7B49B",
"J. c #AFB19E",
"K. c #9F9FA2",
"L. c #A3A3A4",
"P. c #AAA9A7",
"I. c #B9B8A7",
"U. c #B3B2B4",
"Y. c #BBBABB",
"T. c #BBB8B3",
"R. c #AEAFA8",
"E. c #C8B685",
"W. c #D3BD86",
"Q. c #C7B994",
"!. c #CCB98E",
"~. c #C4BAA4",
"^. c #C2BEB6",
"/. c #BFC0A2",
"(. c #CDC188",
"). c #DDCB84",
"_. c #D8C78A",
"`. c #D2C394",
"'. c #D8C998",
"]. c #DDD39A",
"[. c #CBC695",
"{. c #E4CC85",
"}. c #E3D28B",
"|. c #E9D688",
" X c #F4D787",
".X c #E1CC96",
"XX c #ECD592",
"oX c #E4D49C",
"OX c #EBDD9B",
"+X c #E7D995",
"@X c #F0D895",
"#X c #EDE29B",
"$X c #F4E39B",
"%X c #F2E284",
"&X c #CBCAA5",
"*X c #D7CAA7",
"=X c #D8D9AC",
"-X c #C8C4BA",
";X c #DDD4B8",
":X c #D1CEAF",
">X c #E3D5A3",
",X c #E7D9A8",
"<X c #E6DBB4",
"1X c #ECDAAA",
"2X c #ECE5A3",
"3X c #ECE3AC",
"4X c #ECE7AA",
"5X c #F1ECAC",
"6X c #F3E6A8",
"7X c #EAE3B7",
"8X c #F2E5B6",
"9X c #F5F2B5",
"0X c #C1BFC0",
"qX c #C3C3C3",
"wX c #CCCBCA",
"eX c #DBD6C8",
"rX c #DBDBDB",
"tX c #D7D5D3",
"yX c #D0CFCF",
"uX c #E4DCC6",
"iX c #E0DED7",
"pX c #ECE3C3",
"aX c #ECE4CC",
"sX c #EEE9C7",
"dX c #F2EBC7",
"fX c #EEEBD4",
"gX c #EBE7D8",
"hX c #F4EDD4",
"jX c #F2EDDC",
"kX c #F7F0D8",
"lX c #F9F2CD",
"zX c #DEDFE1",
"xX c #EFEFEF",
"cX c #E8E6E2",
"vX c #F1EEE4",
"bX c #F2F1E3",
"nX c #F3F2EC",
"mX c #F8F5EB",
"MX c #EFF0F0",
"NX c #F1F2F2",
"BX c #FCF9F2",
"VX c None",
/* pixels */
"VXVXVXVXVXVXVXVXVXVXVXVXVXVXVXVXVXVXVXVXVXVXVXVXVXVXVXxXMXMXMXMXMXMXNXMXMXVXVXVXVXVXVXVXVXVXVXVXVXVXVXVXVXVXVXVXVXVXVXVXVXVXVXVX",
"VXVXVXVXVXVXVXVXVXVXVXVXVXVXVXVXVXVXVXVXVXVXVXxXMXNXxXNXNXMXMXNXMXNXNXNXNXMXNXNXNXVXVXVXVXVXVXVXVXVXVXVXVXVXVXVXVXVXVXVXVXVXVXVX",
"VXVXVXVXVXVXVXVXVXVXVXVXVXVXVXVXVXVXVXVXMXxXxXNXNXNXNXNXNXNXNXNXNXNXNXNXNXNXNXNXNXNXNXnXVXVXVXVXVXVXVXVXVXVXVXVXVXVXVXVXVXVXVXVX",
"VXVXVXVXVXVXVXVXVXVXVXVXVXVXVXVXVXVXMXMXNXNXNXNXNXNXNXNXnXbXbXbXbXbXnXNXBXNXNXNXNXNXNXNXNXMXVXVXVXVXVXVXVXVXVXVXVXVXVXVXVXVXVXVX",
"VXVXVXVXVXVXVXVXVXVXVXVXVXVXVXVXxXNXNXNXNXNXNXnXhX7X3X3X4X4X5X4X2XOXOXoX3X7XfXbXnXNXNXNXNXNXxXxXVXVXVXVXVXVXVXVXVXVXVXVXVXVXVXVX",
"VXVXVXVXVXVXVXVXVXVXVXVXVXVXxXMXNXNXNXNXmXaXoX).}.+X2X5X=XP.=X5X+X}.d.%.S ` ` *..XpXvXNXNXNXNXNXMXNXVXVXVXVXVXVXVXVXVXVXVXVXVXVX",
"VXVXVXVXVXVXVXVXVXVXVXVXVXxXNXNXNXNXNX<Xf.=.*.).+X2X4X9XI.J./.5XOX}.f.U * Z 1 < < ! ;.1XhXNXNXNXNXNXMXVXVXVXVXVXVXVXVXVXVXVXVXVX",
"VXVXVXVXVXVXVXVXVXVXVXVXMXMXNXNXNXaXk.[ &.*.Y (.}.OX4X9X=XR.=X4XOX).d.U = ! 1 < # # * ; 1.oXhXNXNXNXNXMXMXVXVXVXVXVXVXVXVXVXVXVX",
"VXVXVXVXVXVXVXVXVXVXVXxXNXNXNXnX>X| ` ' %.;.T L }.#X2X4X5X6X6X8X2X+X}.>.' Z 1 # < * & - ! } 3.1XbXNXNXNXnXxXVXVXVXVXVXVXVXVXVXVX",
"VXVXVXVXVXVXVXVXVXxXNXNXNXNXfXf.` ~ ~ ` ' &.>.>.g.d.s.k.|.OX6X1X7X<X7X7XOX}.,.~ 5 * = ; ( } 4.3.|.aXBXNXMXNXMXVXVXVXVXVXVXVXVXVX",
"VXVXVXVXVXVXVXVXVXMXNXNXNX7X-.~ : = D ` ' %.( / / >.'.eXiXgXiXiXyX0XU.R.P.F.E.>.;.] D ! } X.4.3.l.k.<XNXNXNXnXNXVXVXVXVXVXVXVXVX",
"VXVXVXVXVXVXVXVXMXNXNXNX<X=.} ' : = S ` / t Z W ~.qXyXrXzXzXzXrXyX0XU.L.B.m.m.V.Y %.} 1.X.4.3.k.:.5.h.>XNXNXNXNXMXVXVXVXVXVXVXVX",
"VXVXVXVXVXVXVXxXNXNXNX>X..4.1.1.U A ` ( ` W P.U.Y.qXwX;X<X;X*X>X'.[.!.S.C.V.m.m.m.B.A.]  .2.l.:.T  X3.3..XnXNXNXMXVXVXVXVXVXVXVX",
"VXVXVXVXVXVXMXNXNXNX<XX.2.2.;.1.]  .+.W F.L.L.P.I.!..X>X1X8X8X8X8X8X8X1XoXW.Q Y B.F.L.R.:. .4.<.5.l.l.3.X..XNXNXNXNXVXVXVXVXVXVX",
"VXVXVXVXVXxXMXNXNXuXX.3.l.3.2.4. .o.S.L.K.B.S.<.|.$X$Xb.v.p.i.i.r.i.i.p.v.b. X|.,.W R.U.Y.I.] +.l.3.3.2.1.} <XNXNXNXxXVXVXVXVXVX",
"VXVXVXVXVXMXNXBXvX,.3.T :.5.3.( &.G.P.P.A.*.j.b.v.i.r.t.r.r.t.r.r.r.r.r.w.t.i.i.c.j.-.!.0XqX-X] ( 2.2.1.1.] ..aXNXNXNXVXVXVXVXVX",
"VXVXVXVXMXNXNXNX@X3.x.5.T 5.+.] I.U.P.Q y.a.a.e.t.r.r.w.q.9.8.j @.v 8.w.r.r.r.t.r.r.u.u.<.-XqXY.1.( } %.= : ~ f.nXNXNXNXVXVXVXVX",
"VXVXVXVXMXNXNXaX3.3.l.l.l.$.{ ~.Y.R.*.u.p.e.r.r.r.q.j y 6 5 5 5 6 5 6 6 9 a 9.t.r.t.t.r.u.;.~.Y.U.[ ( A : : D { <XNXNXNXxXVXVXVX",
"VXVXVXxXNXNXmXXX4.3.3.l.3.( Q.0X^.;.u.a.r.r.r.q.a 6 6 9 u p h j j h g u y 6 6 i 9.r.r.e.r.e.7.G.P.G.{ ~ B D ~ ' ;.jXNXNXNXVXVXVX",
"VXVXVXNXNXNXhX2.} 4.3.3.( >.0X^.;.u.i.e.r.r.8.7 6 q d h v v n c v c c c h h w 6 6 a t.r.r.e.e.o.F.L.A.( ` ' ] &.-.>XNXNXMXxXVXVX",
"VXVXxXxXNXNX1X( ~ } X.$.[ T.Y.f.u.i.r.r.w.a 6 y d x 3 3 3 a n N 3 3 x m 3 3 3 e u 6 y w.e.r.r.r.&.F.K.:. .&.*.,.d.d.jXNXNXxXVXVX",
"VXVXxXNXNXbX;.! ! ! } ( Q U.H.y.e.r.r.r.i 6 u d x m N 3 3 s n d 3 e z m 3 3 0 a x p 6 y q.r.r.r.w.E L.G.o.-.f.g.).g.,XNXNXxXVXVX",
"VXVXxXNXNXpXC 1 ; 2 { ' F.P.o.i.r.r.r.p 6 g x c n n m h r a n v h a z m a h t z x b h 7 y r.r.r.e.6.G.U.E.-.).].oX#X).nXNXNXMXVX",
"VXxXNXNXBX'.# % , 1 { I B.E e.e.r.r.8.7 u v x c n n n y.y.+.v y.y.7._ 0.y.y.) n n v n g 7 a r.r.r.w.,.^.&Xo.}.2X&X5Xg.aXNXNXMXVX",
"VXxXNXNXbXE + % + Z / P V. .i.r.r.r.y y v x n n n M M j.k.h.6.j.j.k.o.y.k.h. .M n m n n u 7 9.r.r.r.y.:XtX,.g.9X9X9X#X].NXNXMXVX",
"VXNXNXNXpX, + + + / S n.J q.r.r.r.a 7 h n m n n M M n j.XXXXs.XXXXXXk.z.@X).6.M M n c 9.v 9 i r.r.t.9.).zX'.o.9X9X9X4Xg.nXMXMXMX",
"VXNXNXNX_.+ + + + / B o D r.r.r.w.y u v m c n n M M n c.8X6X>X4X,X3X>X1X8X_.z n M m n n b u 8 q.r.t.t.h.rXeX) #X9X9X4Xg.vXNXNXMX",
"xXNXNXnXE + + + $ t . o ( r.r.r.0.7 h v m n M M q.M n c.dXkXkXfX_.dXkXkXkX(.m M M n M m 9.j 9 p r.r.e.w.;XeX| z.4X2XOXd.aXNXNXMX",
"xXNXNXjX! @ + + , 2 o : 6.r.t.t.p y j x c M n M n M t.i.lXBXBXvXs.9XBXBXmXg.m n M n n n m b u i t.t.t.9.`.yX&.-._.).).d.pXNXNXNX",
"xXNXNXaX! &   X 1 G P J 9.w.w.t.i q x m c M M M M q.t.t.#XaXaX&X7.%XaXaXeX7.M M M M M n n b u 9 q.t.t.q.>.0X:. .Y P I ;.7XNXNXNX",
"xXxXNXsX/ . . B t Z m.U 9.w.q.w.y u x m M M M M M r.r.t.j.(.Q.Q w.u.(.D.D.6.t.M M M M n c x g 9 9.q.q.q.&.P.E ) I B D ] pXNXNXNX",
"xXNXNXaX[ D S S ^ D Z.E 9.q.q.9.y r x m c M M m r z N z s t t ^ w.e.7.G 0 4 4 3 x M M n n x h 9 8.q.q.q.| B.I / C C C ~ 8XNXNXMX",
"NXNXNXsXs.P o K ..%.U.:.b q.9.9.y r x n n M M 6.6.s s z N 4 4 0 w.6.a s s 0 0 4 0 z M M n c d 9 8.9.9.q./ m.I / & X & C 8XNXNXNX",
"NXNXNXsXg.N.W S.;.1.0XW.b 9.9.9.i w x c n n M 7.7.7.G G G ^ G G u.y.7.| G ) ) a s s z M c c a y 9.9.9.M H M.V / *     C aXNXNXMX",
"NXNXNXkX#X].].[.|.=.yX'.b 9.9.9.p q N n n M M j.[.g.| w.w.w.w.w.i.z.).g.7.t.M 6. .) ) n c x p y 9.9.9.b H m.S / $ @ $ D jXNXNXMX",
"xXNXNXbX2X[.B.J.@X..iX<X8.b b 9.a y x c n n M  X7X4Xg.u.a.a.i.i.r.#X7X2X|.p.q.6.) 6.z n c m w p 9.b b b E B.S ` *   & %.vXNXNXMX",
"xXNXNXbX$X:Xn.B.2X+.eXuXy.b b b 0.y j v c M M 2XbXkXfXdX9X4X4Xg.t.b.fXbXfX7X5X%Xu.M n n b v y @.b b b j Q.L.~ { = . ; <.bXNXNXMX",
"xXxXNXNX$X=XJ.I.4Xo.:XrX;.v v v 9.i g v c c M $XNXmXvXbXbXfXiX[.t.r.j.7XbXmXmXmXlX Xn n 9.k y 8.b j v y.^.G./ 1.~ ~ ~ {.mXNXNXMX",
"VXNXNXNX1X6X9X9X6Xs._.yXW.j j v v @.y j m c M |.uXpX(.7.s.s.7.7.t.i.u.u.7.).<XbXnXjXy.b v u @.8.j j x ,.0XD./ %.Y > 1.XXNXNXMXMX",
"VXMXNXNX<X|.2X2X#Xd.=.-X~._ j j j 8.( f v m c d.'.&X*.n M M M M M g._.g.0.n m +XuXuXd.b g i @.j j j j Q.0X%.#.:.T T ;.1XNXNXNXVX",
"VXMXNXNXjXg.+X(.S.>. .H.U.%.g j j j #.i g v c O.D.D.&.n 9.q.6.w.M *.Q D.7.M M g.[.&X&.a i #.j j j j o.U.I.! 2.5.<.<.3.pXNXNXxXVX",
"VXVXMXNXnX).>.L Y Y +.>.P.F.p j j h j #.i h x +.E E Q Q >.>.g.>.z 7.E E E | *.Q D.W ) w @.@.g h g j S.U.W ( 2.> Y 5.5.vXNXNXnXVX",
"VXVXMXNXNX<X&.L E U ] +.A.K.E g g g g 8.+.i h ^ S I I I I Y E I 6.M ) S V S U I I Z q _ 0.h h g g ] L.F.` X.I > > 4..XNXNXnXVXVX",
"VXVXMXNXNXbX;.' D J S { *.K.L.] g g g g @.#.i y G t t / G s G s z M z z G D G Z t u _ #.g g g g ( F.K.E ( ] U > R 3.hXNXNXNXVXVX",
"VXVXVXNXNXNX1X] = A : ~  .S.U.G.( g g f f j $.( w d d x c n c c m m c c x h d l ( #.@.g f g f ( S.L.A./ ] ~ ] } 1.XXNXNXNXMXVXVX",
"VXVXVXMXNXNXvXd.A : = ] ..[ J.Y.~.( l f g l h #.$.( f f h j j j v x j h g f i } y.k f f f f k !.U.P.H  .' ~ ~ ' k.hXNXNXNXVXVXVX",
"VXVXVXVXMXNXNX<X] ~ D : U O.%.T.qX~.( w f f f f k #.$.( ( k i k u i p ( #.$.$.@.f f f f f @.!.0XY.:.) ' D ~ D ] 1XNXNXMXNXVXVXVX",
"VXVXVXVXxXNXNXnX.X] > I Y l.o.%.^.T.F.~ l w f l f f f @.#.$.$.$.O.y.$.#.@.f w l f f w w $.*XrXwXE.) ;.*.J : A k.bXNXNXNXVXVXVXVX",
"VXVXVXVXVXNXNXNXjXf.E R <.:.5.;.:.F.B.M.S y w w u w q w w w l f u f l q w w w u w q i g.uXzXzX[. .s.W T %.U ] pXNXNXNXxXVXVXVXVX",
"VXVXVXVXVXMXxXNXNXdXl.k.Y P :.k.-.%.N.n.M.K D y q q q q q q q q q q q q q w q q f ;.=XiXzXiX].7.}.].A.o L &.oXnXNXNXMXVXVXVXVXVX",
"VXVXVXVXVXVXxXNXNXNXdX{.Y :.4.} { } *.C.M.M.m.V.U ! i q q q q q q q q q q y ( <.*XtXzXzXuXg.s.#XH.H.[.N.,.).bXNXNXNXVXVXVXVXVXVX",
"VXVXVXVXVXVXVXNXNXNXnXdX{.1.} ! 1 < ` ,.D.N.m.m.B.Z.C.W %.} { { } } 1.1.W.~.-XyXyXtXtX'.s.z.5X7X&XF.=Xg.d.bXNXNXNXnXVXVXVXVXVXVX",
"VXVXVXVXVXVXVXxXxXNXNXnXdX5.! ! # % % C =.).Q.B.B.B.L.P.U.^.wXeXuXyXwXqXqXqXwXwXwXQ.;.h.$X5X4XJ.9X=X_.g.fXNXNXNXMXVXVXVXVXVXVXVX",
"VXVXVXVXVXVXVXVXxXNXNXNXNXdX1.# % @ $ % , Z -.}.*XI.R.R.T.qXyXrXzXyXyXqX-X-XQ.>.X.h. X5X&XJ.=X:X=X#X}.cXNXNXMXNXVXVXVXVXVXVXVXVX",
"VXVXVXVXVXVXVXVXVXxXNXNXNXNXaX<., % # # # , , Z | f._.'.`.`.`.*X'.`.W.>.....-.l. X$X+X>XG.H.B.3X}.OXbXNXNXNXNXVXVXVXVXVXVXVXVXVX",
"VXVXVXVXVXVXVXVXVXVXNXNXNXNXNXgX_.C # # , 1 * - F Z ] | -.-.-.7.O.O.$.4.l.l. X{.S.S.).G.=XJ.[.|.7XNXNXNXNXNXVXVXVXVXVXVXVXVXVXVX",
"VXVXVXVXVXVXVXVXVXVXVXMXNXNXNXNXnX>X' 1 , 1 - O . S I J ,.(.[.4X4X6X XE.<.5. X5.C.S.!.!.$X$X3XvXNXNXNXNXMXVXVXVXVXVXVXVXVXVXVXVX",
"VXVXVXVXVXVXVXVXVXVXVXVXVXMXNXNXNXNXgX_.` Z * = . D P J W L m.&X~.@X@XY Y W.x. XW A.XX$X8XjXNXNXNXNXxXMXVXVXVXVXVXVXVXVXVXVXVXVX",
"VXVXVXVXVXVXVXVXVXVXVXVXVXVXMXNXNXNXNXNXfX'.&.Z G H J P E.N.m.=XI.[.@XC.Y 5.x. X#X3XdXbXNXNXNXNXNXxXVXVXVXVXVXVXVXVXVXVXVXVXVXVX",
"VXVXVXVXVXVXVXVXVXVXVXVXVXVXVXMXxXNXNXNXNXNXvX<X_.*.| H *.d.(.].[.D.{.f.W. X1XdXbXnXNXNXNXMXNXMXxXVXVXVXVXVXVXVXVXVXVXVXVXVXVXVX",
"VXVXVXVXVXVXVXVXVXVXVXVXVXVXVXVXVXxXMXNXNXNXNXNXNXNXjXuX<X>XoX>X>X,X<XpXgXnXNXnXNXNXNXNXMXNXMXVXVXVXVXVXVXVXVXVXVXVXVXVXVXVXVXVX",
"VXVXVXVXVXVXVXVXVXVXVXVXVXVXVXVXVXVXVXMXxXNXNXNXNXNXNXNXNXNXNXNXNXNXNXNXNXNXNXNXNXNXNXxXxXVXVXVXVXVXVXVXVXVXVXVXVXVXVXVXVXVXVXVX",
"VXVXVXVXVXVXVXVXVXVXVXVXVXVXVXVXVXVXVXVXVXVXMXMXxXNXNXNXNXNXNXNXNXNXNXNXNXNXNXNXMXMXVXVXVXVXVXVXVXVXVXVXVXVXVXVXVXVXVXVXVXVXVXVX",
"VXVXVXVXVXVXVXVXVXVXVXVXVXVXVXVXVXVXVXVXVXVXVXVXVXxXMXNXMXMXMXMXMXNXMXMXMXMXMXVXVXVXVXVXVXVXVXVXVXVXVXVXVXVXVXVXVXVXVXVXVXVXVXVX"
};
