/* XPM */
static char *wescoin32[] = {
/* columns rows colors chars-per-pixel */
"32 32 217 2 ",
"   c #9A6A25",
".  c #84653C",
"X  c #AA7832",
"o  c #916F45",
"O  c #8C704A",
"+  c #98764C",
"@  c #AE8239",
"#  c #B5873A",
"$  c #DFB81F",
"%  c #DCA72E",
"&  c #D5AC2C",
"*  c #DBA92E",
"=  c #D7B629",
"-  c #D4A631",
";  c #DBAC33",
":  c #D6AC37",
">  c #CBB235",
",  c #CDB33E",
"<  c #DCB134",
"1  c #DCB43A",
"2  c #DDBA3D",
"3  c #D4B833",
"4  c #E0BA22",
"5  c #E0AE31",
"6  c #E1B433",
"7  c #E2BC36",
"8  c #E1B23B",
"9  c #E3BB3B",
"0  c #E0C42F",
"q  c #E6C435",
"w  c #E8C936",
"e  c #E5C33B",
"r  c #E8C53B",
"t  c #E5CA3B",
"y  c #EACD3A",
"u  c #E8C737",
"i  c #EBD03C",
"p  c #97805A",
"a  c #9A835A",
"s  c #AA894C",
"d  c #AC8641",
"f  c #B68941",
"g  c #A68755",
"h  c #AC935B",
"j  c #B2995B",
"k  c #BA9A5B",
"l  c #B99B55",
"z  c #B9934A",
"x  c #B8A04D",
"c  c #BAA556",
"v  c #8D8164",
"b  c #958866",
"n  c #A48C66",
"m  c #A39165",
"M  c #AB9967",
"N  c #B69D6C",
"B  c #AB9D74",
"V  c #AA9F7B",
"C  c #BA9F75",
"Z  c #BDA564",
"A  c #BAA569",
"S  c #BCAA74",
"D  c #BBAC7A",
"F  c #BAA775",
"G  c #BFB07C",
"H  c #C69B4C",
"J  c #C79D53",
"K  c #C8A245",
"L  c #DBAD49",
"P  c #D3A84E",
"I  c #CEB648",
"U  c #DFB445",
"Y  c #D7BA48",
"T  c #C9A554",
"R  c #C4A45B",
"E  c #C6A85A",
"W  c #D4A957",
"Q  c #CBB65A",
"!  c #D7B757",
"~  c #E1BC42",
"^  c #CBAC62",
"/  c #C5AB6A",
"(  c #C7A966",
")  c #D7AF62",
"_  c #CBB46F",
"`  c #CCB867",
"'  c #D2B364",
"]  c #DCB763",
"[  c #DCBD66",
"{  c #D7B76B",
"}  c #C6AD71",
"|  c #C4A671",
" . c #CBB274",
".. c #CCB57A",
"X. c #CCBA7C",
"o. c #C7B476",
"O. c #D4BB74",
"+. c #D8B775",
"@. c #E4BA65",
"#. c #E5BA6A",
"$. c #E0BB78",
"%. c #DFC646",
"&. c #D8C257",
"*. c #E5C541",
"=. c #E9CB44",
"-. c #E4C449",
";. c #E3CB4C",
":. c #E5CB43",
">. c #EDD247",
",. c #EDD44A",
"<. c #EFD84B",
"1. c #F1DA4A",
"2. c #E5CF55",
"3. c #E5CB5C",
"4. c #E3C457",
"5. c #E6D053",
"6. c #EBD353",
"7. c #EBD55A",
"8. c #EBD756",
"9. c #F1DB54",
"0. c #F2DD5C",
"q. c #DAC76D",
"w. c #D6C374",
"e. c #D6C67C",
"r. c #DDC776",
"t. c #E6C86C",
"y. c #E8D469",
"u. c #F2DE67",
"i. c #E4CC7A",
"p. c #E8C575",
"a. c #F0C97E",
"s. c #EEDB77",
"d. c #958F84",
"f. c #9B978A",
"g. c #A29985",
"h. c #ADA385",
"j. c #B3A98B",
"k. c #B9AB89",
"l. c #BFB087",
"z. c #ABA697",
"x. c #B4AD96",
"c. c #BBB798",
"v. c #AEA9A0",
"b. c #B0ADA6",
"n. c #AFB4A2",
"m. c #BBB6A9",
"M. c #BFB9B1",
"N. c #C5B789",
"B. c #D3BD88",
"V. c #D3BB84",
"C. c #C2B793",
"Z. c #C2BB97",
"A. c #D1BD91",
"S. c #C3BCAC",
"D. c #CFC18B",
"F. c #D1C081",
"G. c #DAC584",
"H. c #DEC58C",
"J. c #DBCA8A",
"K. c #DCCA80",
"L. c #CEC199",
"P. c #CAC69C",
"I. c #DAC997",
"U. c #DACC9A",
"Y. c #D6C595",
"T. c #DAD29D",
"R. c #E9C981",
"E. c #E5D488",
"W. c #E1CD97",
"Q. c #E3D594",
"!. c #E5D995",
"~. c #E8D991",
"^. c #E3D69A",
"/. c #E8DD9D",
"(. c #C7C4A8",
"). c #D8CCA9",
"_. c #DAD4AF",
"`. c #DAD7A8",
"'. c #CAC4B7",
"]. c #D5CEBC",
"[. c #DCD1B2",
"{. c #E0CFA1",
"}. c #E6D9A2",
"|. c #E5D5AC",
" X c #E6DAAB",
".X c #EBDCAD",
"XX c #E7D3A2",
"oX c #E7DBB6",
"OX c #F3DDA3",
"+X c #EBE4AB",
"@X c #F0E7A8",
"#X c #ECE2BC",
"$X c #ECE5B2",
"%X c #F3E8B9",
"&X c #F3F2B6",
"*X c #D4CEC3",
"=X c #D9D3C4",
"-X c #DEDCD4",
";X c #CCC9C2",
":X c #E4DDC9",
">X c #E1DDD2",
",X c #E7E0C7",
"<X c #ECE3C5",
"1X c #EAE4CC",
"2X c #F2E8C7",
"3X c #ECE7D3",
"4X c #EEE9D5",
"5X c #EEEADB",
"6X c #F2EDDC",
"7X c #F1EAD5",
"8X c #F0EEE2",
"9X c #F0EFE9",
"0X c #F2F1E6",
"qX c #F2F1EC",
"wX c #EFF0F0",
"eX c #F1F2F2",
"rX c None",
/* pixels */
"rXrXrXrXrXrXrXrXrXrXrXrXeXwXeXeXeXeXeXwXrXrXrXrXrXrXrXrXrXrXrXrX",
"rXrXrXrXrXrXrXrXrXqXeXeXeXqX0X0X0XqXeXeXeXeXeXrXrXrXrXrXrXrXrXrX",
"rXrXrXrXrXrXrXrXeXeX5X<X.X$X_.$X/.J.D.T.:X0XeXeXeXrXrXrXrXrXrXrX",
"rXrXrXrXrXrXeXeX6X).O.X.!.@X(.`.~./ s # f | |.8XeXeXrXrXrXrXrXrX",
"rXrXrXrXrXwXeX,X .R ^ S K.!.}.$X+XI. .H @ + P R.2XeXeXrXrXrXrXrX",
"rXrXrXrXeXqX|.^ p l T E N.].1X-X;Xn.z.h.A R ] #.$..X9XeXrXrXrXrX",
"rXrXrXeXqX|.#.' R R h.v.S.[. X.XXXY.k.g.f.j.{ [ $.p.XXeXeXrXrXrX",
"rXrXrXeXoX+.{ @._ z.j.e.s.u.0.0.0.0.u.y.w.C.m.X.@.#.W oXeXeXrXrX",
"rXrXeX8Xa.a.) { m.X.7.<.>.e 1 : : 1 e =.1.<.e.m. .T p / 5XeXrXrX",
"rXeXeX.X@.t.] S.e.6.1.U - * < 7 2 1 & - U ,.1.w.z.Z k E W.eXeXrX",
"rXeXqX+.T W l.D.<.<.2 & 0 4 = q $ q $ = < 1 ,.<. .j.' O.K.4XeXrX",
"rXeX:X# # Z h.5.<.2 ; u i y U t Y e U 2 t < 1 <.5.C.F.E./.oXeXrX",
"eXeXB.  # m Z 1.=.: e y y 6.i.i.i.t.i.%.y w ; :.1.r.).~.&X/.9XwX",
"eXqXN   # v ! 1.2 7 y y y 8.%X#X$X%X}.:.y y 7 1 <.7._.K.@X!.5XwX",
"eX7Xs . d b ;.,.; 7 y i i 9.2X,XE.5XT.i i y e 1 >.,.A.o.o.X.4XwX",
"eX7XM + c B =.=.< u i y t t ! Q 5.` I q y y u ; =.=.D Z g c 4XeX",
"wX6Xo.B _ N.=.=.< q i :.I , > > 5.Y > > 3 y w < *.=.B h o g 3XwX",
"eX8XT.c.G.).-.=.< q y 8.^.y.8.5.y.!.y.;.I e u < r *.B j o g 6XeX",
"wXqX`.n.J.[.4.e 2 7 w s.6X2X#X!.0.@X2X%Xs.>.9 8 r -.x.E g } 0XwX",
"wXqX+X@XE.L.O.7 9 1 q y.[.q.5.5.5.q.y./.,X3.8 8 e [ C.W N J.qXwX",
"rXeXoXN.F o.k.U 9 ~ 8 Y D ` &.&.&.S Q ` N.I ~ 9 1 N. .| | XXeXeX",
"rXeX5X/ M R j./ 6 9 ~ : x c c E e I c l K U 9 6 E z.W n | 3XeXrX",
"rXqXeXU.g h ^ b.' 5 8 ~ 1 8 7 e q e 1 1 U 8 6 ! x.A T T W.eXeXrX",
"rXrXeX6X .n ( ..S.R ; 5 8 U U U U U U 1 ; 5 @.'.N.E h ( 7XeXrXrX",
"rXrXwXeX<X .C { } d.m K % % % ; 5 % % % U H.:XT.w.V N |.eXeXrXrX",
"rXrXrXeXeX#X..W H / f.d.B R P L L W ' A.].=XQ.T.(.N.U.qXeXrXrXrX",
"rXrXrXrXeXeXoXJ X @ c l.x.b.M.*X=X'.'.(.Y.E.T._.`.}.8XeXrXrXrXrX",
"rXrXrXrXrXeXeXoXk X X s ( o.V.J.H.+.O.p.G.Y.Z.P.$XqXeXrXrXrXrXrX",
"rXrXrXrXrXrXeXeX5XV.z O p m F Z.^.V.+.R.l.I.$X7XeXeXrXrXrXrXrXrX",
"rXrXrXrXrXrXrXeXeXeX1XL.} A D Z.Y.D.B.OX<X0XqXeXeXrXrXrXrXrXrXrX",
"rXrXrXrXrXrXrXrXrXeXeXeX9X5X1X1X1X4X8XqXeXeXeXrXrXrXrXrXrXrXrXrX",
"rXrXrXrXrXrXrXrXrXrXrXrXwXwXeXeXeXeXeXeXwXrXrXrXrXrXrXrXrXrXrXrX"
};
